<svg width="21" height="20" viewBox="0 0 21 20" fill="none" xmlns="http://www.w3.org/2000/svg">
<path fill-rule="evenodd" clip-rule="evenodd" d="M8.95813 4C6.74899 4 4.95813 5.79086 4.95813 8C4.95813 10.2091 6.74899 12 8.95813 12C11.1673 12 12.9581 10.2091 12.9581 8C12.9581 5.79086 11.1673 4 8.95813 4ZM2.95813 8C2.95813 4.68629 5.64442 2 8.95813 2C12.2718 2 14.9581 4.68629 14.9581 8C14.9581 9.29583 14.5473 10.4957 13.8489 11.4765L18.6652 16.2929C19.0558 16.6834 19.0558 17.3166 18.6652 17.7071C18.2747 18.0976 17.6415 18.0976 17.251 17.7071L12.4347 12.8907C11.4538 13.5892 10.254 14 8.95813 14C5.64442 14 2.95813 11.3137 2.95813 8Z" fill="#356AFD"/>
</svg>
